<?xml version="1.0" encoding="utf-8"?>
<!-- Generator: Adobe Illustrator 16.0.3, SVG Export Plug-In . SVG Version: 6.00 Build 0)  -->
<!DOCTYPE svg PUBLIC "-//W3C//DTD SVG 1.1//EN" "http://www.w3.org/Graphics/SVG/1.1/DTD/svg11.dtd">
<svg version="1.1" id="Layer_1" xmlns="http://www.w3.org/2000/svg" xmlns:xlink="http://www.w3.org/1999/xlink" x="0px" y="0px"
	 width="32px" height="32px" viewBox="0 0 32 32" enable-background="new 0 0 32 32" xml:space="preserve">
<g>
	<path fill-rule="evenodd" clip-rule="evenodd" fill="#F79121" d="M9.042,14.516c0.66-0.501,1.178-1.148,1.773-1.71
		c0.218-0.201,0.418-0.428,0.623-0.649c0.054,0.015,0.104,0.03,0.155,0.045c0,0.449-0.011,0.897,0.003,1.344
		c0.032,0.97,0.152,1.923,0.473,2.838c0.683,1.948,2.123,2.824,4.244,2.668c2.078-0.155,3.173-1.071,3.67-3.105
		c0.572-2.319,0.554-4.662-0.005-6.991c-0.299-1.251-0.953-2.251-2.189-2.771c-0.243-0.099-0.175-0.18-0.042-0.309
		c0.38-0.376,0.763-0.752,1.132-1.139c0.151-0.154,0.263-0.149,0.425-0.02c0.371,0.293,0.677,0.648,1.097,1.066
		c0-0.624,0.014-1.139-0.005-1.648C20.386,3.868,20.46,3.76,20.752,3.77c0.626,0.021,1.251,0.015,1.881,0
		c0.235-0.005,0.342,0.078,0.322,0.314c-0.009,0.078-0.004,0.155-0.004,0.227c0,5.919,0.004,11.843,0,17.758
		c0,1.382-0.269,2.71-0.933,3.93c-1.209,2.241-3.173,3.323-5.646,3.539c-2.439,0.212-4.642-0.354-6.484-2.06
		c-0.231-0.216-0.288-0.331-0.031-0.557c0.39-0.351,0.765-0.705,1.11-1.092c0.224-0.247,0.368-0.268,0.621-0.031
		c0.789,0.736,1.685,1.273,2.771,1.427c0.883,0.13,1.768,0.135,2.64-0.098c1.885-0.51,2.854-1.849,3.219-3.677
		c0.278-1.372,0.135-2.767,0.165-4.135c-0.137-0.082-0.177,0.011-0.221,0.062c-1.523,1.816-3.537,2.26-5.759,1.961
		c-2.783-0.376-4.473-2.135-5.1-5.144c-0.053-0.258,0.052-0.587-0.259-0.762C9.042,15.128,9.042,14.819,9.042,14.516z"/>
	<path fill-rule="evenodd" clip-rule="evenodd" fill="#A59C87" d="M15.972,13.608c0.948,0,1.891,0.02,2.836-0.005
		c0.367-0.005,0.445,0.118,0.395,0.454c-0.083,0.556-0.12,1.116-0.278,1.668c-0.475,1.648-1.382,2.375-3.356,2.242
		c-1.277-0.088-2.069-0.79-2.464-1.989c-0.208-0.624-0.3-1.267-0.377-1.921c-0.041-0.336,0.043-0.459,0.404-0.454
		C14.079,13.628,15.024,13.608,15.972,13.608z"/>
	<path fill-rule="evenodd" clip-rule="evenodd" fill="#A59C87" d="M12.915,12.191c0.206-0.293,0.149-0.54,0.033-0.835
		c-0.23-0.572,0.021-1.229,0.529-1.57c0.525-0.34,1.234-0.278,1.693,0.146c0.443,0.411,0.555,1.101,0.27,1.638
		c-0.296,0.562-0.936,0.855-1.551,0.669C13.571,12.141,13.275,12.026,12.915,12.191z"/>
	<path fill-rule="evenodd" clip-rule="evenodd" fill="#A49B86" d="M12.172,9.668c-0.251-0.073-0.398-0.073-0.568-0.01
		c-0.485,0.159-0.918,0.005-1.155-0.376c-0.225-0.366-0.171-0.875,0.126-1.181c0.291-0.304,0.814-0.371,1.176-0.159
		c0.385,0.226,0.56,0.68,0.403,1.148C12.094,9.267,12.061,9.425,12.172,9.668z"/>
	<path fill-rule="evenodd" clip-rule="evenodd" fill="#A29985" d="M13.854,5.608c-0.008,0.351-0.266,0.598-0.618,0.598
		c-0.44-0.005-0.603-0.175-0.595-0.623c0.009-0.335,0.292-0.608,0.625-0.603C13.602,4.985,13.858,5.264,13.854,5.608z"/>
</g>
</svg>
