<?xml version="1.0" encoding="utf-8"?>
<!-- Generator: Adobe Illustrator 17.1.0, SVG Export Plug-In . SVG Version: 6.00 Build 0)  -->
<!DOCTYPE svg PUBLIC "-//W3C//DTD SVG 1.1//EN" "http://www.w3.org/Graphics/SVG/1.1/DTD/svg11.dtd">
<svg version="1.1" id="Layer_1" xmlns="http://www.w3.org/2000/svg" xmlns:xlink="http://www.w3.org/1999/xlink" x="0px" y="0px"
	 viewBox="0 0 1140.7 429.5" style="enable-background:new 0 0 1140.7 429.5;" xml:space="preserve">
<style type="text/css">
	.st0{fill:#A59C87;}
	.st1{fill:#F7901E;}
	.st2{fill:none;stroke:#A59C87;stroke-width:1.6;stroke-miterlimit:10;}
</style>
<g>
	<g>
		<path class="st0" d="M86,260.5c22.9,0,37.9-9.6,40.4-54.3H45.2C47.8,250.8,63.4,260.5,86,260.5z"/>
		<g>
			<path class="st0" d="M76.3,185c6.6-6.6,6.6-17.4,0-24c-6.6-6.6-17.4-6.6-24,0c-6,6-6.6,15.3-1.7,22l-3.7,7.5l7.5-3.7
				C60.9,191.5,70.3,191,76.3,185z"/>
			<path class="st0" d="M35.7,137.7c-4.7-4.7-12.2-4.7-16.9,0c-4.7,4.7-4.7,12.2,0,16.9c4.2,4.2,10.8,4.6,15.4,1.2l5.2,2.6l-2.6-5.3
				C40.3,148.5,39.9,141.9,35.7,137.7z"/>
			<path class="st0" d="M57.4,112.1c3-3,3-7.8,0-10.8c-3-3-7.8-3-10.8,0c-2.7,2.7-2.9,6.9-0.8,9.9l-1.7,3.3l3.4-1.6
				C50.6,115,54.7,114.8,57.4,112.1z"/>
		</g>
	</g>
	<path class="st1" d="M140.9,84v25.9c-5.3-6.9-10.8-12.1-16.5-16.1l-19.1,19.1c30.2,10,35.1,44.6,35.1,79.2
		c0,41.1-6.7,82.2-54.5,82.2c-47.8,0-54.9-41.1-54.9-82.2c0-1.7,0-3.3,0.1-5L0,218.2c2.4,25.7,9.3,48.9,25.7,65.4
		c11.6,11.6,30.8,19.7,53.2,19.7c23.7,0,43.8-5.8,61.7-28.6v34.4c0,37.5-17.9,67.4-60.3,67.4c-25.5,0-36.6-7.6-52.7-21.9l-21,20.5
		c23.2,21,41.5,29.5,74.6,29.5c57.6,0,91.5-39.7,91.5-94.2V84H140.9z"/>
</g>
<g>
	<path class="st0" d="M326.4,283.1c1,8.3,4.5,14.6,10.5,18.8c6,4.2,13.2,6.4,21.5,6.4c5.9,0,10.9-0.7,14.8-2.2
		c3.9-1.5,7.1-3.3,9.5-5.5c2.4-2.2,4-4.5,4.9-7.1c0.9-2.6,1.3-5,1.3-7.4c0-5.1-1.9-9.4-5.8-12.7c-3.9-3.4-11-6.4-21.5-9.2l-27-7.4
		c-11.5-3.2-19.6-8.2-24.3-15.3c-4.7-7-7.1-15.2-7.1-24.4c0-6.3,1.2-12.3,3.6-18.1c2.4-5.7,5.9-10.7,10.5-15
		c4.6-4.2,10.4-7.6,17.3-10.1c6.9-2.5,14.8-3.7,23.7-3.7c9.9,0,18.2,1.4,24.9,4.3c6.7,2.9,12.1,6.6,16.3,11.1
		c4.1,4.5,7.2,9.7,9,15.4c1.9,5.7,2.8,11.5,2.8,17.2h-24.9c-1-8.9-3.8-15.5-8.4-19.7c-4.6-4.2-11.4-6.4-20.3-6.4
		c-8.5,0-15.3,2.2-20.3,6.5c-5,4.3-7.6,9.6-7.6,15.7c0,4.3,1.3,8.1,3.9,11.3c2.6,3.2,7,5.6,13.3,7.4l36.1,10.4
		c12.2,3.6,20.7,8.6,25.3,15.3c4.6,6.6,7,15,7,25c0,7.9-1.6,14.8-4.7,20.7c-3.2,5.9-7.4,10.9-12.6,15c-5.2,4-11.2,7.1-17.9,9.2
		c-6.7,2.1-13.6,3.1-20.7,3.1c-18.2,0-32.3-4.4-42.4-13.2c-10.1-8.8-15.3-20.6-15.7-35.4H326.4z"/>
	<path class="st0" d="M538.5,210.6c-10.5-10.3-22.4-15.4-35.8-15.4c-6.5,0-12.8,1.2-19,3.6c-6.1,2.4-11.6,6-16.3,10.8
		c-4.7,4.8-8.5,10.8-11.4,17.9c-2.9,7.1-4.3,15.4-4.3,24.9c0,7.9,1.3,15.2,4,21.8c2.7,6.6,6.4,12.3,11.3,17.2
		c4.8,4.8,10.5,8.6,17,11.4c6.5,2.8,13.6,4.1,21.3,4.1c6.3,0,12.5-1.5,18.5-4.6c6-3.1,11.3-6.8,15.8-11.1l15.7,19.5
		c-6.9,7.1-15,12.4-24.3,15.8c-9.3,3.5-19,5.2-29,5.2c-11.8,0-22.6-2.2-32.3-6.5c-9.7-4.3-18-10.2-24.9-17.6
		c-6.9-7.4-12.2-15.9-16-25.6c-3.8-9.7-5.6-19.8-5.6-30.5c0-11.1,2-21.5,6.1-31.3c4-9.8,9.6-18.4,16.7-25.8
		c7.1-7.4,15.5-13.3,25.2-17.6c9.7-4.3,20-6.5,31.1-6.5c11.8,0,22.5,2,31.8,6.1c9.4,4,16.8,8.4,22.4,13.2L538.5,210.6z"/>
	<path class="st0" d="M669.4,238.4c0-5.7-0.6-11.2-1.9-16.4c-1.3-5.2-3.3-9.8-6.1-13.8c-2.8-3.9-6.5-7.1-11.1-9.5
		c-4.6-2.4-10.2-3.6-16.7-3.6c-12.4,0-22.2,4-29.3,12s-10.7,19.4-10.7,34.2v86.8h-26.7V103h26.7v88.9h0.6c3.9-6.9,9.8-12.2,17.6-16
		c7.8-3.7,16-5.6,24.7-5.6c7.5,0,14.8,1.1,21.9,3.3c7.1,2.2,13.5,5.6,19.1,10.2c5.6,4.6,10.1,10.6,13.5,17.9c3.4,7.3,5,16.2,5,26.7
		v99.8h-26.7V238.4z"/>
	<path class="st0" d="M717.1,251.1c0-10.9,2.1-21.2,6.2-31s9.9-18.4,17.3-25.8c7.4-7.4,16.2-13.3,26.4-17.6
		c10.2-4.3,21.4-6.5,33.6-6.5c12,0,23.2,2.2,33.5,6.5c10.3,4.3,19.1,10.2,26.5,17.6c7.4,7.4,13.2,16,17.3,25.8s6.2,20.1,6.2,31
		c0,11.1-2,21.5-5.9,31.3c-4,9.8-9.6,18.3-16.9,25.6c-7.3,7.3-16.1,13.1-26.4,17.3c-10.3,4.2-21.7,6.4-34.4,6.4
		c-12.6,0-24.1-2.1-34.4-6.4c-10.3-4.2-19.1-10-26.4-17.3c-7.3-7.3-12.9-15.8-16.9-25.6C719.1,272.6,717.1,262.2,717.1,251.1z
		 M800.6,195.2c-7.5,0-14.6,1.4-21.2,4.3c-6.6,2.9-12.4,6.8-17.5,11.7c-5,4.9-9,10.9-12,17.8c-3,6.9-4.4,14.3-4.4,22.2
		c0,7.5,1.5,14.6,4.4,21.3c3,6.7,7,12.6,12,17.6c5,5,10.9,9.1,17.5,12.1c6.6,3.1,13.7,4.6,21.2,4.6c7.3,0,14.3-1.5,21-4.6
		c6.7-3.1,12.6-7.1,17.6-12.1c5-5,9-10.9,12-17.6c3-6.7,4.4-13.8,4.4-21.3c0-7.9-1.5-15.3-4.4-22.2c-3-6.9-7-12.8-12-17.8
		c-5-4.9-10.9-8.8-17.6-11.7C814.9,196.6,807.9,195.2,800.6,195.2z"/>
	<path class="st0" d="M902.5,251.1c0-10.9,2.1-21.2,6.2-31s9.9-18.4,17.3-25.8c7.4-7.4,16.2-13.3,26.4-17.6
		c10.2-4.3,21.4-6.5,33.6-6.5c12,0,23.2,2.2,33.5,6.5c10.3,4.3,19.1,10.2,26.5,17.6c7.4,7.4,13.2,16,17.3,25.8s6.2,20.1,6.2,31
		c0,11.1-2,21.5-5.9,31.3c-4,9.8-9.6,18.3-16.9,25.6c-7.3,7.3-16.1,13.1-26.4,17.3c-10.3,4.2-21.7,6.4-34.4,6.4
		c-12.6,0-24.1-2.1-34.4-6.4c-10.3-4.2-19.1-10-26.4-17.3c-7.3-7.3-12.9-15.8-16.9-25.6C904.5,272.6,902.5,262.2,902.5,251.1z
		 M986,195.2c-7.5,0-14.6,1.4-21.2,4.3c-6.6,2.9-12.4,6.8-17.5,11.7c-5,4.9-9,10.9-12,17.8c-3,6.9-4.4,14.3-4.4,22.2
		c0,7.5,1.5,14.6,4.4,21.3c3,6.7,7,12.6,12,17.6c5,5,10.9,9.1,17.5,12.1c6.6,3.1,13.7,4.6,21.2,4.6c7.3,0,14.3-1.5,21-4.6
		c6.7-3.1,12.6-7.1,17.6-12.1c5-5,9-10.9,12-17.6c3-6.7,4.4-13.8,4.4-21.3c0-7.9-1.5-15.3-4.4-22.2c-3-6.9-7-12.8-12-17.8
		c-5-4.9-10.9-8.8-17.6-11.7C1000.4,196.6,993.4,195.2,986,195.2z"/>
	<path class="st0" d="M1115.5,103v176.8c0,8.7,1.8,14.8,5.3,18.2c3.6,3.5,7.5,5.2,11.8,5.2h8v24.9h-11c-12.4,0-22.4-3.7-29.8-11
		c-7.4-7.3-11.1-19.1-11.1-35.3V103H1115.5z"/>
</g>
<line class="st2" x1="235.6" y1="0" x2="235.6" y2="429.5"/>
</svg>
